<svg width="24" height="24" viewBox="0 0 24 24" fill="none" xmlns="http://www.w3.org/2000/svg">
<path d="M12.8555 12.8574H9.20312L9.18359 10.7285H12.2012C12.735 10.7285 13.168 10.6634 13.5 10.5332C13.8385 10.403 14.0859 10.2142 14.2422 9.9668C14.3984 9.71289 14.4766 9.40039 14.4766 9.0293C14.4766 8.60612 14.3984 8.26432 14.2422 8.00391C14.0859 7.74349 13.8385 7.55469 13.5 7.4375C13.168 7.3138 12.7383 7.25195 12.2109 7.25195H10.3555V19H7.17188V4.78125H12.2109C13.0638 4.78125 13.8255 4.85938 14.4961 5.01562C15.1667 5.17188 15.7363 5.41276 16.2051 5.73828C16.6803 6.0638 17.0417 6.4707 17.2891 6.95898C17.5365 7.44727 17.6602 8.02344 17.6602 8.6875C17.6602 9.26693 17.5299 9.80729 17.2695 10.3086C17.0156 10.8099 16.6055 11.2168 16.0391 11.5293C15.4727 11.8418 14.7142 12.0111 13.7637 12.0371L12.8555 12.8574ZM12.7285 19H8.39258L9.54492 16.5391H12.7285C13.2168 16.5391 13.6139 16.4609 13.9199 16.3047C14.2259 16.1484 14.4505 15.9368 14.5938 15.6699C14.737 15.403 14.8086 15.1035 14.8086 14.7715C14.8086 14.3809 14.7402 14.0423 14.6035 13.7559C14.4733 13.4694 14.265 13.248 13.9785 13.0918C13.6986 12.9355 13.3242 12.8574 12.8555 12.8574H10.0039L10.0234 10.7285H13.5098L14.252 11.5684C15.1569 11.5488 15.8796 11.6953 16.4199 12.0078C16.9668 12.3138 17.3607 12.7174 17.6016 13.2188C17.8424 13.7201 17.9629 14.2507 17.9629 14.8105C17.9629 15.735 17.7643 16.5098 17.3672 17.1348C16.9701 17.7533 16.3809 18.2188 15.5996 18.5312C14.8249 18.8438 13.8678 19 12.7285 19Z" fill="white"/>
</svg>
