<svg width="24" height="24" viewBox="0 0 24 24" fill="none" xmlns="http://www.w3.org/2000/svg">
<path d="M22 4.71765V20.2824C22 21.7833 20.7974 23 19.314 23H7.18605C5.70258 23 4.5 21.7833 4.5 20.2824V4.71765C4.5 3.21674 5.70258 2 7.18605 2H19.314C20.7974 2 22 3.21673 22 4.71765ZM3.2 6.5H4.8C4.91046 6.5 5 6.58954 5 6.7V7.8C5 7.91046 4.91046 8 4.8 8H3.2C3.08954 8 3 7.91046 3 7.8V6.7C3 6.58954 3.08954 6.5 3.2 6.5ZM3.2 11.5H4.8C4.91046 11.5 5 11.5895 5 11.7V12.8C5 12.9105 4.91046 13 4.8 13H3.2C3.08954 13 3 12.9105 3 12.8V11.7C3 11.5895 3.08954 11.5 3.2 11.5ZM3.2 16.5H4.8C4.91046 16.5 5 16.5895 5 16.7V17.8C5 17.9105 4.91046 18 4.8 18H3.2C3.08954 18 3 17.9105 3 17.8V16.7C3 16.5895 3.08954 16.5 3.2 16.5Z" fill="white"/>
</svg>
