<svg width="24" height="24" viewBox="0 0 24 24" fill="none" xmlns="http://www.w3.org/2000/svg">
<path fill-rule="evenodd" clip-rule="evenodd" d="M22 3.71765V19.2824C22 20.7833 20.7974 22 19.314 22H7.18605C5.70258 22 4.5 20.7833 4.5 19.2824V17H3.2C3.08954 17 3 16.9105 3 16.8V15.7C3 15.5895 3.08954 15.5 3.2 15.5H4.5V12H3.2C3.08954 12 3 11.9105 3 11.8V10.7C3 10.5895 3.08954 10.5 3.2 10.5H4.5V7H3.2C3.08954 7 3 6.91046 3 6.8V5.7C3 5.58954 3.08954 5.5 3.2 5.5H4.5V3.71765C4.5 2.21674 5.70258 1 7.18605 1H19.314C20.7974 1 22 2.21673 22 3.71765ZM6.00229 19.125V17H7.8C7.91046 17 8 16.9105 8 16.8V15.7C8 15.5895 7.91046 15.5 7.8 15.5H6.00229V12H7.8C7.91046 12 8 11.9105 8 11.8V10.7C8 10.5895 7.91046 10.5 7.8 10.5H6.00229V7H7.8C7.91046 7 8 6.91046 8 6.8V5.7C8 5.58954 7.91046 5.5 7.8 5.5H6.00229V4C6.045 3.27317 6.64691 2.5 7.375 2.5H19.125H19.2056C19.9324 2.54267 20.5 3.27183 20.5 4V19.125C20.4573 19.8518 19.4364 20.5 18.7083 20.5H7.58331H7.50272C6.77588 20.4573 6.00229 19.8532 6.00229 19.125Z" fill="#AAAAAA"/>
</svg>
