<svg width="24" height="24" viewBox="0 0 24 24" fill="none" xmlns="http://www.w3.org/2000/svg">
<path d="M18.5 2.5C20.7091 2.5 22.5 4.39035 22.5 6.72222V17.2778C22.5 19.6096 20.7091 21.5 18.5 21.5H5.5C3.29087 21.5 1.5 19.6096 1.5 17.2778V6.72222V6.72223C1.5 4.39036 3.29086 2.5 5.5 2.5H18.5ZM20.9805 7.02147C20.9332 6.91612 20.8139 6.8712 20.7141 6.92114C20.7141 6.92116 20.714 6.92118 20.714 6.9212L13.075 10.7618L12.9535 10.8183C12.3002 11.103 11.5632 11.0825 10.925 10.7618L3.28601 6.92174C3.18628 6.87161 3.06694 6.9163 3.01944 7.02156C3.00658 7.05006 3.00001 7.08123 3.00001 7.1128V8.39846V8.39846C3.00001 8.48005 3.04423 8.55444 3.11401 8.58952L10.2805 12.1911H10.2805C11.3683 12.7378 12.6317 12.7378 13.7195 12.1911L20.886 8.58952C20.9558 8.55444 21 8.48005 21 8.39846V7.1128C21 7.08138 20.9933 7.05037 20.9805 7.02202L20.9805 7.02147Z" fill="white"/>
</svg>
