<svg width="24" height="24" viewBox="0 0 24 24" fill="none" xmlns="http://www.w3.org/2000/svg">
<path d="M8.28759 9.36474V9.18562C8.28759 8.73156 8.65316 8.35497 9.12432 8.32368L12.5562 8.09575L17.3022 15.0482V8.94625L16.0806 8.78425V8.69917C16.0806 8.23976 16.4546 7.8607 16.9317 7.83638L20.0544 7.67725V8.12429C20.0544 8.33414 19.8975 8.51364 19.6825 8.54982L18.9311 8.67625V18.5582L17.988 18.8808C17.2001 19.1504 16.323 18.8618 15.8719 18.1848L11.2644 11.2682V17.8697L12.6826 18.1397L12.6628 18.2705C12.6009 18.6805 12.2452 18.9905 11.8148 19.0095L8.28759 19.1657C8.24097 18.7249 8.57306 18.3306 9.03119 18.2827L9.49516 18.2342V9.43224L8.28759 9.36474Z" fill="white"/>
<path fill-rule="evenodd" clip-rule="evenodd" d="M16.6443 0.00644617L2.5036 0.966859C1.65657 1.02439 1 1.7018 1 2.51818V16.2002C1 16.9673 1.26543 17.7126 1.75448 18.3186L4.80343 22.0971C5.29639 22.708 6.07217 23.0444 6.87476 22.9953L22.5694 22.0342C23.3738 21.9849 24 21.3433 24 20.5684V5.01322C24 4.53378 23.7566 4.08452 23.348 3.80969L18.3797 0.468113C17.8734 0.127566 17.2607 -0.0354181 16.6443 0.00644617ZM3.20481 2.7316C3.00813 2.58675 3.10173 2.28498 3.3488 2.26735L16.7394 1.3119C17.1661 1.28145 17.59 1.39833 17.9351 1.64151L20.6218 3.5351C20.7238 3.60699 20.676 3.76218 20.5497 3.76901L6.36904 4.53622C5.93988 4.55944 5.51628 4.43402 5.17506 4.18271L3.20481 2.7316ZM5.70391 6.94138C5.70391 6.48309 6.07609 6.10454 6.55201 6.07875L21.545 5.26649C22.0088 5.24136 22.3993 5.5962 22.3993 6.04285V19.512C22.3993 19.9694 22.0284 20.3476 21.5534 20.3745L6.65538 21.2178C6.13919 21.247 5.70391 20.8524 5.70391 20.3553V6.94138Z" fill="white"/>
</svg>
