<svg width="24" height="24" viewBox="0 0 24 24" fill="none" xmlns="http://www.w3.org/2000/svg">
<path d="M20.7791 19.4703C20.9191 19.4703 20.9891 19.5383 20.9891 19.6742V20.796C20.9891 20.932 20.9191 21 20.7791 21H12.2736C12.1336 21 12.0636 20.932 12.0636 20.796V19.6742C12.0636 19.5383 12.1336 19.4703 12.2736 19.4703H20.7791ZM13.7663 6.91955L17.4782 10.5251C17.6832 10.7242 17.6832 11.0469 17.4782 11.2461L7.60873 20.8323C7.5102 20.9277 7.37669 20.9812 7.23753 20.9812H4.05006C3.47013 20.9812 3 20.5246 3 19.9613V16.8662C2.99975 16.7309 3.0549 16.601 3.15331 16.5052L13.0239 6.91955C13.2289 6.72049 13.5613 6.72049 13.7663 6.91955ZM20.7791 16.4109C20.9191 16.4109 20.9891 16.4789 20.9891 16.6148V17.7366C20.9891 17.8726 20.9191 17.9406 20.7791 17.9406H16.4739C16.3338 17.9406 16.2638 17.8726 16.2638 17.7366V16.6148C16.2638 16.4789 16.3338 16.4109 16.4739 16.4109H20.7791ZM20.0771 4.39601L20.0771 4.3955C21.3075 5.59018 21.3076 7.5273 20.0775 8.72217C20.0774 8.7223 20.0773 8.72242 20.0771 8.72254L19.3348 9.44354C19.1456 9.62746 18.8478 9.64176 18.6417 9.48634L18.5922 9.44394C18.5921 9.44381 18.592 9.44368 18.5918 9.44354L14.8799 5.83751C14.6749 5.63839 14.6749 5.31562 14.8799 5.11651L15.6223 4.39601C16.8525 3.20133 18.8469 3.20133 20.0771 4.39601Z" fill="white"/>
</svg>
