<svg width="24" height="24" viewBox="0 0 24 24" fill="none" xmlns="http://www.w3.org/2000/svg">
<path fill-rule="evenodd" clip-rule="evenodd" d="M23 12C23 5.92487 18.0751 1 12 1C5.92487 1 1 5.92487 1 12C1 18.0751 5.92487 23 12 23C18.0751 23 23 18.0751 23 12ZM2.5 12C2.5 6.75329 6.75329 2.5 12 2.5C17.2467 2.5 21.5 6.75329 21.5 12C21.5 14.1001 20.8186 16.041 19.6647 17.6137C19.5612 17.7549 19.4046 17.95 19.1951 18.199C19.1343 18.2714 19.0311 18.2912 18.9478 18.2467L18.4125 17.9605L14.7448 16L14.745 15.8324C16.2362 14.9696 17.2395 13.3572 17.2395 11.5105V9.4895C17.2395 6.73388 15.0056 4.5 12.25 4.5C9.49437 4.5 7.26049 6.73388 7.26049 9.4895V11.5105C7.26049 13.3572 8.26377 14.9696 9.75502 15.8324L9.75524 16L5.85557 18.0839L5.21223 18.4277C5.13066 18.4713 5.02984 18.4532 4.96841 18.3841C4.76106 18.1504 4.60572 17.9673 4.50239 17.8347C3.24753 16.2245 2.5 14.1996 2.5 12Z" fill="white"/>
</svg>
